<?xml version="1.0"?>
<svg xmlns="http://www.w3.org/2000/svg" viewBox="0 0 50 50">
    <path style="line-height:normal;text-indent:0;text-align:start;text-decoration-line:none;text-decoration-style:solid;text-decoration-color:#000;text-transform:none;block-progression:tb;isolation:auto;mix-blend-mode:normal" d="M 25 2 C 23.52734 2 21.931501 2.390255 20.859375 2.6894531 A 1.0001 1.0001 0 0 0 20.857422 2.6894531 C 19.822127 2.9803634 19.017131 3.8079678 18.755859 4.8515625 A 1.0001 1.0001 0 0 0 18.755859 4.8535156 L 18.636719 5.328125 C 18.33316 5.0889373 18.039602 4.8502726 17.666016 4.5878906 C 16.590333 3.8324034 15.467588 3 14.099609 3 C 13.602227 3 13.177688 3.069204 12.792969 3.2851562 C 12.40825 3.5011086 12.115542 3.9192102 12.035156 4.2871094 C 11.874384 5.0229077 12.228516 5.4902344 12.228516 5.4902344 A 1.0001 1.0001 0 0 0 13.099609 6 L 16.074219 6 C 16.262903 6.1131983 16.339512 6.099548 16.517578 6.2246094 C 17.003112 6.5656157 17.455652 6.9186624 17.798828 7.1992188 C 17.975255 7.3434523 17.992603 7.3636148 18.103516 7.4609375 L 18.029297 7.7578125 A 1.0004594 1.0004594 0 0 0 18 8 L 17 8 C 16.448 8 16 8.447 16 9 L 16 9.1796875 L 11.804688 10.019531 A 1.0001 1.0001 0 1 0 12.195312 11.980469 L 16.033203 11.212891 C 16.105346 11.538595 16.327448 11.816512 16.648438 11.9375 L 24 14 L 26 14 L 33.351562 11.9375 C 33.672552 11.816512 33.894654 11.538595 33.966797 11.212891 L 37.804688 11.980469 A 1.0001 1.0001 0 1 0 38.195312 10.019531 L 34 9.1796875 L 34 9 C 34 8.447 33.552 8 33 8 L 32 8 A 1.0004594 1.0004594 0 0 0 32 7.9980469 A 1.0004594 1.0004594 0 0 0 31.970703 7.7578125 L 31.914062 7.5292969 C 32.016226 7.4389848 32.077401 7.3817983 32.300781 7.1992188 C 32.644042 6.918655 33.096417 6.5656308 33.582031 6.2246094 C 33.760127 6.0995425 33.836671 6.1132022 34.025391 6 L 37 6 A 1.0001 1.0001 0 0 0 37.871094 5.4902344 C 37.871094 5.4902344 38.223538 5.0204918 38.0625 4.2851562 C 37.98198 3.9174885 37.689298 3.5011086 37.304688 3.2851562 C 36.920076 3.0692039 36.497201 3 36 3 C 34.632146 3 33.509365 3.8324334 32.433594 4.5878906 C 32.027938 4.8727612 31.699851 5.1357778 31.378906 5.390625 L 31.244141 4.8535156 C 30.983064 3.8106991 30.179014 2.9817787 29.142578 2.6914062 L 29.140625 2.6914062 C 28.067718 2.3909894 26.471984 2 25 2 z M 25 4 C 26.09334 4 27.610529 4.3396597 28.601562 4.6171875 A 1.0001 1.0001 0 0 0 28.603516 4.6171875 C 28.954273 4.7152375 29.215905 4.9832674 29.304688 5.3378906 L 29.96875 8 L 20.03125 8 L 20.695312 5.3378906 C 20.784041 4.9834854 21.04578 4.7143241 21.398438 4.6152344 C 22.390342 4.3385125 23.907235 4 25 4 z M 17.40625 14.226562 C 17.36225 14.260563 17.306578 14.277359 17.267578 14.318359 C 15.394578 16.330359 15.038906 20.461781 15.003906 20.925781 C 15.003354 20.933056 15.00625 20.939992 15.005859 20.947266 L 15.001953 20.947266 C 14.996953 21.042266 14.999578 23.249422 15.767578 27.107422 C 14.752578 27.288422 13.814 27.690766 13 28.259766 L 13 31.029297 C 13.912 29.805297 15.359 29 17 29 C 17.307 29 17.596156 28.858187 17.785156 28.617188 C 17.974156 28.376187 18.044656 28.061672 17.972656 27.763672 C 17.699709 26.641443 17.505371 25.664661 17.363281 24.818359 C 18.528969 26.65695 19.565584 28.415476 20.363281 29.613281 L 21.179688 30.191406 C 22.537688 31.152406 24.993 30.995 25 31 C 25.084 31.002 27.546344 31.152406 28.902344 30.191406 L 29.71875 29.613281 C 30.509132 28.427084 31.50285 26.6894 32.630859 24.869141 C 32.489547 25.7025 32.296047 26.668875 32.029297 27.765625 C 31.957297 28.063625 32.024844 28.378141 32.214844 28.619141 C 32.404844 28.860141 32.693 29 33 29 C 34.641 29 36.088 29.80625 37 31.03125 L 37 28.259766 C 36.186 27.690766 35.247422 27.290375 34.232422 27.109375 C 35.000422 23.376375 35.002047 21.042266 34.998047 20.947266 L 34.994141 20.947266 C 34.993748 20.939992 34.996646 20.933056 34.996094 20.925781 C 34.962094 20.460781 34.604422 16.330359 32.732422 14.318359 C 32.694422 14.277359 32.63875 14.260563 32.59375 14.226562 L 26.539062 15.925781 L 26.275391 16 L 26 16 L 26 23 C 26 23.127 25.971734 23.246375 25.927734 23.359375 C 25.791734 23.711375 25.462313 23.957328 25.070312 23.986328 C 25.045313 23.988328 25.025 24 25 24 C 24.448 24 24 23.553 24 23 L 24 16 L 23.724609 16 L 23.460938 15.925781 L 17.40625 14.226562 z M 16.5 31 C 15.121 31 14 32.121 14 33.5 L 14 45.5 C 14 46.879 15.121 48 16.5 48 C 17.879 48 19 46.879 19 45.5 L 19 33.5 C 19 32.121 17.879 31 16.5 31 z M 33.5 31 C 32.121 31 31 32.121 31 33.5 L 31 38 L 29 38 L 29 32.244141 C 27.612 32.937141 25.373969 33 25.042969 33 C 24.995969 33 24.966031 32.998047 24.957031 32.998047 C 24.956031 32.996047 22.581 33.032141 21 32.244141 L 21 38 L 19.001953 38 L 19.001953 40 L 21.720703 40 C 23.193854 40.924548 24.61732 41.001953 24.964844 41.001953 L 25 41.001953 L 25.035156 41.001953 C 25.38268 41.001953 26.806146 40.924548 28.279297 40 L 31 40 L 31 45.5 C 31 46.879 32.121 48 33.5 48 C 34.879 48 36 46.879 36 45.5 L 36 33.5 C 36 32.121 34.879 31 33.5 31 z" font-weight="400" font-family="sans-serif" white-space="normal" overflow="visible"/>
</svg>
