<?xml version="1.0" encoding="utf-8"?>
<!-- Generator: Adobe Illustrator 24.0.0, SVG Export Plug-In . SVG Version: 6.00 Build 0)  -->
<svg version="1.1" xmlns="http://www.w3.org/2000/svg" xmlns:xlink="http://www.w3.org/1999/xlink" x="0px" y="0px"
	 viewBox="0 0 24 24" style="enable-background:new 0 0 24 24;" xml:space="preserve">
<g id="Layer_1">
</g>
<g id="Layer_2">
	<g>
		<path style="fill:#DFE6E9;stroke:#000000;stroke-width:0.25;stroke-miterlimit:10;" d="M12.96,4.04L12.96,4.04
			c0.4,0.11,0.71,0.43,0.81,0.83l0.05,0.21c0.12-0.1,0.25-0.2,0.41-0.31c0.41-0.29,0.84-0.61,1.37-0.61c0.19,0,0.35,0.03,0.5,0.11
			c0.15,0.08,0.26,0.24,0.29,0.38c0.06,0.28-0.07,0.46-0.07,0.46c-0.07,0.12-0.2,0.2-0.33,0.2h-1.14c-0.07,0.04-0.1,0.04-0.17,0.09
			c-0.19,0.13-0.36,0.27-0.49,0.37c-0.09,0.07-0.11,0.09-0.15,0.13l0.02,0.09c0.01,0.03,0.01,0.06,0.01,0.09c0,0,0,0,0,0h0.38
			c0.21,0,0.38,0.17,0.38,0.38v0.07l1.61,0.32c0.01,0,0.01,0,0.02,0c0.21,0.05,0.34,0.25,0.29,0.46c-0.05,0.21-0.25,0.34-0.46,0.29
			l-1.47-0.29c-0.03,0.13-0.11,0.23-0.24,0.28l-2.82,0.79h-0.77L8.16,7.59C8.04,7.54,7.95,7.44,7.93,7.31L6.45,7.61
			c-0.01,0-0.01,0-0.02,0C6.22,7.64,6.02,7.5,5.99,7.3s0.1-0.41,0.31-0.44l1.61-0.32V6.46c0-0.21,0.17-0.38,0.38-0.38h0.38
			c0-0.03,0-0.06,0.01-0.09l0.03-0.11C8.68,5.83,8.67,5.82,8.6,5.77C8.47,5.66,8.3,5.53,8.11,5.39c-0.07-0.05-0.1-0.04-0.17-0.09
			H6.8c-0.14,0-0.27-0.07-0.33-0.2c0,0-0.14-0.18-0.07-0.46c0.03-0.14,0.14-0.3,0.29-0.38s0.31-0.11,0.5-0.11
			c0.53,0,0.96,0.32,1.37,0.61c0.14,0.1,0.26,0.19,0.37,0.28l0.05-0.18c0,0,0,0,0,0c0.1-0.4,0.41-0.72,0.81-0.83c0,0,0,0,0,0
			c0.41-0.11,1.02-0.26,1.59-0.26C11.94,3.77,12.55,3.92,12.96,4.04z"/>
		<path style="fill:#017E9A;stroke:#000000;stroke-width:0.25;stroke-miterlimit:10;" d="M11.37,4.54c0.42,0,1,0.13,1.38,0.24
			c0,0,0,0,0,0c0.13,0.04,0.24,0.14,0.27,0.28l0.26,1.02H9.46l0.26-1.02c0.03-0.14,0.13-0.24,0.27-0.28
			C10.37,4.67,10.95,4.54,11.37,4.54z"/>
		<path style="fill:#017E9A;stroke:#000000;stroke-width:0.25;stroke-miterlimit:10;" d="M10.78,9.12l0.1,0.03h0.11v2.69
			c0,0.21,0.17,0.38,0.38,0.38c0.01,0,0.02,0,0.03-0.01c0.15-0.01,0.28-0.11,0.33-0.24c0.02-0.04,0.03-0.09,0.03-0.14V9.15h0.11
			l0.1-0.03l2.33-0.65c0.02,0.01,0.04,0.02,0.05,0.04c0.72,0.77,0.86,2.36,0.87,2.54c0,0,0,0.01,0,0.01h0c0,0.04,0,0.93-0.29,2.37
			c0.39,0.07,0.75,0.22,1.06,0.44v1.06c-0.35-0.47-0.91-0.78-1.54-0.78c-0.12,0-0.23-0.05-0.3-0.15c-0.07-0.09-0.1-0.21-0.07-0.33
			c0.1-0.42,0.18-0.79,0.23-1.11c-0.43,0.7-0.81,1.37-1.12,1.82l-0.31,0.22c-0.52,0.37-1.47,0.31-1.5,0.31c0,0-0.95,0.06-1.47-0.31
			l-0.31-0.22c-0.31-0.46-0.7-1.14-1.15-1.84c0.05,0.33,0.13,0.7,0.23,1.13c0.03,0.11,0,0.24-0.07,0.33
			c-0.07,0.09-0.18,0.15-0.3,0.15c-0.63,0-1.19,0.31-1.54,0.78v-1.06c0.31-0.22,0.67-0.37,1.06-0.44c-0.29-1.48-0.3-2.33-0.29-2.37
			h0c0,0,0-0.01,0-0.01C7.54,10.86,7.68,9.28,8.4,8.5c0.01-0.02,0.04-0.02,0.05-0.04L10.78,9.12z"/>
		<path style="stroke:#000000;stroke-width:0.25;stroke-miterlimit:10;" d="M9.07,15.87v4.61c0,0.53-0.43,0.96-0.96,0.96
			s-0.96-0.43-0.96-0.96v-4.61c0-0.53,0.43-0.96,0.96-0.96S9.07,15.34,9.07,15.87z"/>
		<path style="fill:#DFE6E9;stroke:#000000;stroke-width:0.25;stroke-miterlimit:10;" d="M15.59,15.87v4.61
			c0,0.53-0.43,0.96-0.96,0.96s-0.96-0.43-0.96-0.96v-2.11h-1.04c-0.57,0.36-1.11,0.38-1.25,0.38h-0.01h-0.01
			c-0.13,0-0.68-0.03-1.25-0.38H9.07V17.6h0.77v-2.21c0.61,0.3,1.52,0.29,1.52,0.29c0,0,0.01,0,0.03,0c0.13,0,0.99-0.02,1.52-0.29
			v2.21h0.77v-1.73c0-0.53,0.43-0.96,0.96-0.96S15.59,15.34,15.59,15.87z"/>
		<path style="stroke:#000000;stroke-width:0.25;stroke-miterlimit:10;" d="M15.59,15.87v4.61c0,0.53-0.43,0.96-0.96,0.96
			s-0.96-0.43-0.96-0.96v-4.61c0-0.53,0.43-0.96,0.96-0.96S15.59,15.34,15.59,15.87z"/>
	</g>
</g>
</svg>
