<?xml version="1.0" encoding="iso-8859-1"?>
<!-- Generator: Adobe Illustrator 19.0.0, SVG Export Plug-In . SVG Version: 6.00 Build 0)  -->
<svg version="1.1" id="Layer_1" xmlns="http://www.w3.org/2000/svg" xmlns:xlink="http://www.w3.org/1999/xlink" x="0px" y="0px"
	 viewBox="0 0 512 512" style="enable-background:new 0 0 512 512;" xml:space="preserve">
<g>
	<g>
		<path d="M290.934,239.347l-9.912-14.868c-5.114-7.674-15.481-9.747-23.152-4.63c-7.672,5.114-9.746,15.479-4.631,23.152
			l9.913,14.869c7.403,11.105-0.534,25.956-13.892,25.956h-9.19c2.734-6.133,1.603-13.571-3.428-18.602
			c-6.521-6.52-17.091-6.52-23.611,0l-22.383,22.382c-7.713,6.325-8.145,17.922-1.228,24.839l23.611,23.611
			c6.52,6.52,17.091,6.52,23.611,0c5.097-5.097,6.19-12.662,3.318-18.839h9.301C289.219,317.216,313.095,272.588,290.934,239.347z"
			/>
	</g>
</g>
<g>
	<g>
		<path d="M250.589,128.341c-6.964-1.863-14.062,0.972-17.976,6.547l-4.65-8.055c-20.021-34.675-70.599-32.904-88.274,2.845
			l-7.92,16.019c-4.087,8.265-0.7,18.279,7.565,22.367c8.264,4.085,18.278,0.7,22.365-7.566l7.922-16.019
			c5.922-11.982,22.764-12.481,29.423-0.948l4.597,7.962c-6.679,0.699-12.556,5.395-14.397,12.269
			c-2.386,8.907,2.898,18.061,11.805,20.448l30.644,8.211c9.491,3.533,19.578-2.118,22.058-11.375l8.643-32.255
			C264.781,139.882,259.496,130.727,250.589,128.341z"/>
	</g>
</g>
<g>
	<g>
		<path d="M153.754,296.612c-0.592-9.202-8.535-16.189-17.734-15.587l-17.833,1.15c-13.313,0.853-22.214-13.437-15.534-25.009
			l4.592-7.954c3.93,5.414,10.917,8.175,17.828,6.328c8.907-2.388,14.191-11.541,11.805-20.448l-8.193-30.578
			c-1.618-9.828-11.428-16.013-20.897-13.483l-32.254,8.643c-8.907,2.388-14.191,11.541-11.805,20.448
			c1.865,6.963,7.87,11.691,14.658,12.292l-4.651,8.057c-19.308,33.44,4.972,75.132,43.349,75.132c2.155,0,1.679-0.004,21.084-1.255
			C147.369,313.754,154.348,305.813,153.754,296.612z"/>
	</g>
</g>
<g>
	<g>
		<path d="M497.979,224.349l-45.654-68.48c-9.31-13.966-24.889-22.304-41.675-22.304h-43.346V94.609
			c0-27.618-22.469-50.087-50.087-50.087H50.087C22.469,44.522,0,66.991,0,94.609V384c0,9.22,7.475,16.696,16.696,16.696h50.087
			c0,36.824,29.959,66.783,66.783,66.783c36.824,0,66.783-29.959,66.783-66.783h111.304c0,36.824,29.959,66.783,66.783,66.783
			s66.783-29.959,66.783-66.783h16.696c27.618,0,50.087-22.469,50.087-50.087v-79.953C512,254.633,507.366,238.427,497.979,224.349z
			 M367.304,166.957h43.346c5.595,0,10.788,2.779,13.891,7.435l39.566,59.347h-96.804V166.957z M133.565,434.087
			c-18.412,0-33.391-14.979-33.391-33.391c0-18.412,14.979-33.391,33.391-33.391c18.412,0,33.391,14.979,33.391,33.391
			C166.957,419.108,151.977,434.087,133.565,434.087z M333.913,350.973c-5.239,4.696-9.725,10.209-13.276,16.332H191.363
			c-11.566-19.941-33.134-33.391-57.798-33.391c-24.664,0-46.232,13.45-57.798,33.391H33.391V94.609
			c0-9.206,7.49-16.696,16.696-16.696h267.13c9.206,0,16.696,7.49,16.696,16.696V350.973z M378.435,434.087
			c-18.412,0-33.391-14.979-33.391-33.391c0-18.412,14.979-33.391,33.391-33.391c18.412,0,33.391,14.979,33.391,33.391
			C411.826,419.108,396.847,434.087,378.435,434.087z M478.609,300.522h-33.391c-9.22,0-16.696,7.475-16.696,16.696
			s7.475,16.696,16.696,16.696h33.391v16.696c0,9.206-7.49,16.696-16.696,16.696h-25.68c-11.566-19.941-33.134-33.391-57.798-33.391
			c-3.793,0-7.509,0.335-11.13,0.945V267.13h111.179c0.081,1.17,0.126,2.344,0.126,3.525V300.522z"/>
	</g>
</g>
<g>
</g>
<g>
</g>
<g>
</g>
<g>
</g>
<g>
</g>
<g>
</g>
<g>
</g>
<g>
</g>
<g>
</g>
<g>
</g>
<g>
</g>
<g>
</g>
<g>
</g>
<g>
</g>
<g>
</g>
</svg>
