<svg width="102" height="129" viewBox="0 0 102 129" fill="none" xmlns="http://www.w3.org/2000/svg">
<path d="M5.70001 128.227L20.05 122.869L15.021 118.354L0.67099 123.712L5.70001 128.227Z" fill="#EFF4FA"/>
<path d="M58.572 108.755C50.941 103.899 38.213 103.373 30.142 107.58C22.071 111.787 21.714 119.133 29.345 123.989C36.976 128.845 49.704 129.371 57.776 125.165C65.846 120.958 66.203 113.611 58.572 108.755Z" fill="#F5F5F5"/>
<path d="M67.156 66.681C67.156 66.681 66.344 66.199 65.997 65.021L67.156 66.681Z" fill="#6B6164"/>
<path d="M10.703 38.431L10.72 60.126L10.635 81.821L10.55 103.516C10.482 110.748 10.413 117.979 10.09 125.211C9.766 117.979 9.698 110.748 9.629 103.516L9.54401 81.821L9.45901 60.126L9.47601 38.431H10.703Z" fill="#C5C2C2"/>
<path d="M29.993 17.844C29.993 17.844 27.078 17.312 25.553 21.121C24.028 24.93 22.144 29.102 21.157 32.107C20.17 35.112 18.735 36.996 18.197 37.803C17.659 38.61 21.068 44.89 23.759 43.32C26.45 41.75 28.693 38.61 29.366 35.964C30.039 33.318 32.685 29.326 33.089 26.141C33.492 22.957 34.523 18.562 29.993 17.844Z" fill="#B9D3E1"/>
<path d="M23.131 37.385C23.131 37.385 20.769 36.697 20.23 36.458C19.691 36.219 19.427 36.697 18.767 36.966C18.107 37.235 17.18 38.282 16.432 39.687C15.684 41.092 14.01 42.468 13.591 42.797C13.172 43.126 12.186 43.485 11.797 43.963C11.408 44.441 11.378 45.279 11.378 45.279C11.378 45.279 10.84 45.757 10.66 46.176C10.48 46.595 10.062 49.256 11.527 50.093C12.992 50.93 13.172 50.392 13.889 49.824C14.607 49.256 16.76 48.927 17.806 48.508C18.853 48.089 18.823 47.402 20.049 46.624C21.275 45.846 23.099 44.561 23.099 44.561C23.099 44.561 25.694 42.671 25.906 41.657C26.121 40.644 25.403 38.611 23.131 37.385Z" fill="#B9D3E1"/>
<path d="M13.697 48.568C13.847 47.895 13.383 46.878 13.293 46.714C13.203 46.55 12.949 46.191 12.65 45.652C12.351 45.114 11.26 45.203 10.841 45.233C10.422 45.263 8.67299 45.019 8.14999 45.209C7.62699 45.398 7.40298 45.682 7.28298 46.026C7.16298 46.37 7.19298 47.058 7.28298 47.132C7.37298 47.207 7.029 47.64 7.014 47.909C6.999 48.178 6.96901 48.645 7.10501 48.708C7.33201 48.813 7.17398 49.114 7.23098 49.599C7.24898 49.749 7.378 50.083 7.414 50.186C7.534 50.525 7.73599 50.619 7.73599 50.619C7.73599 50.619 7.822 51.288 8.121 51.587C8.42 51.886 9.37699 52.095 9.64599 51.991C9.91499 51.886 11.066 51.154 11.066 51.064C11.066 50.974 11.051 50.795 11.051 50.795C11.051 50.795 11.243 50.916 11.993 50.72C12.742 50.524 13.025 50.227 13.219 49.658C13.413 49.091 13.697 48.568 13.697 48.568Z" fill="#FFCC54"/>
<path d="M10.894 45.8C10.894 45.8 10.437 46.355 10.228 46.609C10.019 46.863 9.60001 46.43 9.60001 46.43L9.28601 45.8C9.28601 45.8 9.88401 46.22 10.019 46.116C10.153 46.011 10.894 45.8 10.894 45.8Z" fill="#FEBFBF"/>
<path d="M12.815 48.0299C12.815 48.0299 12.172 48.748 11.873 48.778C11.574 48.808 11.409 48.838 11.409 48.838L11.119 49.766L10.99 49.899C10.99 49.899 11.177 49.903 11.222 50.217C11.267 50.531 11.23 50.8319 11.23 50.8319L11.05 50.797C11.05 50.797 11.155 50.509 11.076 50.307C10.998 50.105 10.841 49.915 10.841 49.915C10.841 49.915 11.133 49.579 11.11 49.321C11.088 49.063 10.894 48.985 10.894 48.985C10.894 48.985 11.177 48.705 11.334 48.346C11.491 47.987 11.794 47.539 11.928 47.359C12.063 47.18 11.861 47.763 11.928 48.032C11.996 48.299 11.952 48.7559 12.815 48.0299Z" fill="#FEBFBF"/>
<path d="M10.228 46.609C10.228 46.609 9.929 47.147 9.884 47.446C9.839 47.745 9.66 47.835 9.66 48.313C9.66 48.791 9.69 49.027 9.66 49.195C9.63 49.363 9.84301 49.509 10.157 49.52C10.471 49.531 10.689 49.363 10.894 48.982C10.982 49.043 10.982 49.043 10.982 49.043C10.982 49.043 10.56 49.677 10.319 49.699C10.078 49.721 9.79601 49.598 9.65601 49.452C9.51701 49.306 9.03501 49.575 8.63101 49.53C8.22701 49.485 7.292 49.128 7.104 48.707C7.432 48.869 7.76701 49.292 8.55301 49.362C9.33901 49.432 9.461 49.261 9.461 49.261C9.461 49.261 9.46098 48.644 9.47198 48.442C9.48298 48.24 9.517 48.061 9.517 48.061C9.517 48.061 8.61999 48.162 8.20499 48.106C7.78999 48.05 7.27399 47.456 7.27399 47.456L7.29501 47.182C7.29501 47.182 7.87899 47.703 8.17099 47.815C8.46299 47.927 8.97799 47.983 9.21399 47.972C9.44899 47.961 9.64001 47.737 9.64001 47.737C9.64001 47.737 9.94301 46.918 9.97601 46.862C10.01 46.806 10.089 46.503 10.089 46.503L10.228 46.609Z" fill="#FEBFBF"/>
<path d="M7.65201 50.526C7.65201 50.526 8.07501 50.711 8.26801 50.772C8.45301 50.83 8.89499 50.99 9.33899 50.875C10.014 50.701 10.934 50.042 10.934 50.042L10.899 49.994C10.899 49.994 9.795 50.647 9.285 50.754C8.775 50.862 8.22699 50.631 8.09299 50.608C7.95799 50.586 7.47 50.319 7.47 50.319L7.65201 50.526Z" fill="#FEBFBF"/>
<path d="M42.526 112.978C40.757 113.85 40.283 113.606 40.283 113.606C40.283 113.606 40.283 113.606 40.269 113.247C39.2 113.516 38.626 114.187 38.019 114.973C37.413 115.759 35.977 117.438 33.153 117.754C30.326 118.066 29.834 116.81 29.834 116.362C29.834 115.914 29.565 115.781 29.834 114.478C30.103 113.179 31.09 111.923 32.346 111.069C33.602 110.219 35.708 109.095 36.228 108.647C36.745 108.199 37.681 106.002 37.681 106.002L41.653 104.545C41.653 104.545 43.917 104.904 43.849 105.733C43.781 106.562 44.097 109.095 44.255 109.59C44.409 110.082 44.499 111.205 44.524 111.406C44.547 111.608 44.299 112.103 42.526 112.978Z" fill="#504F60"/>
<path d="M55.788 117.183C55.609 117.632 53.366 119.487 53.366 119.487C53.366 119.487 53.276 119.336 53.068 119.128C52.591 119.548 51.184 123.283 47.388 124.151C43.588 125.019 41.794 123.372 41.704 122.985C41.639 122.705 41.607 122.468 41.686 121.837C41.715 121.597 41.761 121.299 41.826 120.922C42.063 119.548 44.456 117.574 45.594 116.408C46.728 115.242 47.804 113.595 47.926 112.579C48.044 111.564 48.314 108.901 48.314 108.901C49.451 105.851 55.548 107.753 55.67 108.632C55.792 109.515 55.282 113.627 55.491 114.344C55.57 114.62 55.66 115.033 55.728 115.467C55.728 115.471 55.728 115.471 55.728 115.474C55.839 116.168 55.9 116.907 55.788 117.183Z" fill="#504F60"/>
<path d="M55.788 117.183C55.609 117.632 53.366 119.487 53.366 119.487C53.366 119.487 53.276 119.336 53.068 119.128C52.591 119.548 51.184 123.283 47.388 124.151C43.588 125.019 41.794 123.372 41.704 122.985C41.639 122.705 41.607 122.468 41.686 121.837C41.654 122.077 41.765 123.922 45.195 123.875C48.625 123.832 50.914 121.729 51.722 120.742C52.529 119.755 52.738 118.919 53.218 118.499C53.695 118.079 55.421 116.561 55.726 115.474C55.839 116.168 55.9 116.907 55.788 117.183Z" fill="#626170"/>
<path d="M42.526 112.978C40.757 113.85 40.283 113.606 40.283 113.606C40.283 113.606 40.283 113.606 40.269 113.247C39.2 113.516 38.626 114.187 38.019 114.973C37.413 115.759 35.977 117.438 33.153 117.754C30.326 118.066 29.834 116.81 29.834 116.362C31.47 117.934 33.465 117.327 35.349 116.272C37.233 115.221 38.22 114.029 39.005 113.358C39.791 112.683 41.764 111.901 43.153 111.406C44.545 110.914 43.605 109.946 44.255 109.59C44.409 110.082 44.499 111.205 44.524 111.406C44.547 111.608 44.299 112.103 42.526 112.978Z" fill="#626170"/>
<path d="M46.103 60.694C46.057 65.931 45.037 77.151 45.311 80.47C45.616 84.291 44.657 105.057 44.519 105.727C44.413 106.321 43.53 107.386 42.357 107.767C42.205 107.828 42.053 107.858 41.9 107.889C40.515 108.102 38.505 108.163 36.754 106.686C36.845 105.56 35.171 81.155 34.851 77.304C34.546 73.437 34.364 54.894 34.455 50.723L44.366 50.357C44.366 50.357 45.751 55.168 46.071 58.791C46.118 59.263 46.134 59.918 46.103 60.694Z" fill="#6D899A"/>
<path d="M45.311 80.47C45.616 84.291 44.657 105.057 44.519 105.727C44.413 106.321 43.53 107.386 42.357 107.767C42.722 104.418 43.438 94.522 43.438 84.794C43.438 74.229 42.266 62.734 42.266 62.734C43.652 61.501 44.93 60.831 46.103 60.694C46.057 65.931 45.038 77.152 45.311 80.47Z" fill="#E3E5EF"/>
<path d="M41.9 53.95C41.9 53.95 41.048 60.398 41.9 62.041C42.752 63.684 43.889 65.582 44.113 67.87C44.337 70.157 44.301 79.694 44.937 85.032C45.573 90.369 47.597 102.683 47.686 104.746C47.776 106.809 47.955 110.666 48 112.147C49.659 113.627 55.848 112.874 55.848 110.138C55.848 107.402 57.842 93.286 57.034 88.622C56.227 83.957 55.266 83.402 55.132 81.832C54.997 80.262 56.568 67.162 56.971 65.002C58.272 61.631 57.434 51.023 56.134 50.933C54.833 50.843 41.9 53.95 41.9 53.95Z" fill="#738E9E"/>
<path d="M101.116 110.379V110.383C100.097 113.849 97.757 117.29 93.211 120.204C83.046 126.717 64.376 121.654 59.959 116.67C55.581 111.725 57.411 100.735 57.616 88.535C57.62 88.435 57.623 88.334 57.623 88.234C57.799 75.916 58.552 75.464 64.204 62.456C65.471 59.539 73.863 73.755 82.446 85.542C89.866 90.964 97.696 89.668 100.505 98.345C101.615 101.764 102.376 106.091 101.116 110.379Z" fill="#382D3C"/>
<path d="M101.116 110.383C100.097 113.849 97.757 117.29 93.211 120.204C83.046 126.717 64.376 121.654 59.959 116.67C55.581 111.725 57.411 100.735 57.616 88.535C58.007 90.031 58.499 91.84 58.732 94.154C59.181 98.549 57.302 99.879 57.722 106.414C58.138 112.952 59.993 115.966 63.747 118.241C67.5 120.516 77.39 123.07 86.12 121.096C93.171 119.501 99.954 112.46 101.116 110.383Z" fill="#302534"/>
<path d="M71.743 85.255C71.399 86.331 70.946 87.519 70.419 88.728C70.15 89.345 69.863 89.97 69.558 90.587C69.4 90.91 69.239 91.233 69.074 91.549C68.625 92.403 68.155 93.232 67.667 94C67.606 94.1 67.545 94.201 67.48 94.298C66.956 95.105 66.421 95.837 65.887 96.451C64.358 98.22 62.841 99.027 61.682 97.886C61.348 97.559 61.047 97.071 60.781 96.397C60.767 96.358 60.749 96.318 60.734 96.279C60.314 95.199 59.963 94.112 59.676 93.021C59.665 92.989 59.654 92.96 59.647 92.928C59.421 92.07 59.234 91.213 59.084 90.355C57.975 84.043 58.836 77.804 60.828 72.672C63.659 65.377 65.048 65.628 65.048 65.628C65.048 65.628 70.785 67.734 72.49 81.369C72.586 82.144 72.296 83.561 71.743 85.255Z" fill="#251A29"/>
<path d="M41.172 63.634C41.052 63.644 40.919 63.621 40.78 63.566C40.112 63.303 39.313 62.32 39.134 60.782C39.037 59.945 38.81 56.614 38.823 56.212L39.207 56.222C39.196 56.566 39.415 59.864 39.516 60.738C39.688 62.217 40.452 63.03 40.923 63.216C41.059 63.269 41.172 63.273 41.238 63.222C41.331 63.146 41.355 62.938 41.302 62.665C40.93 60.755 40.64 56.259 40.942 56.018L41.03 55.947L41.147 55.988L41.071 56.166L41.073 56.162L41.076 56.167L41.231 56.248C41.13 56.561 41.229 60.282 41.68 62.593C41.786 63.135 41.631 63.392 41.481 63.512C41.394 63.585 41.289 63.625 41.172 63.634Z" fill="#8C92B0"/>
<path d="M50.961 62.691C48.761 62.872 47.02 62.509 45.764 61.607C44.135 60.435 43.964 58.79 43.958 58.721L44.341 58.686C44.342 58.701 44.508 60.24 46 61.309C47.56 62.425 49.945 62.656 53.093 61.991L53.172 62.359C52.391 62.523 51.653 62.634 50.961 62.691Z" fill="#8C92B0"/>
<path d="M57.396 55.003C57.396 55.003 53.944 56.98 48.166 57.257C42.387 57.535 40.133 57.045 38.095 56.137C36.057 55.228 34.729 53.93 34.729 53.93L34.85 51.725C34.85 51.725 36.131 53.397 38.992 54.327C41.853 55.257 47.776 55.063 50.177 54.883C52.578 54.703 57.001 53.325 57.001 53.325L57.396 55.003Z" fill="#A76478"/>
<path d="M45.069 55.156C45.069 55.156 44.979 55.791 45.034 56.528C45.089 57.265 45.261 58.612 45.261 58.612L44.377 58.566C44.377 58.566 44.082 57.28 44.045 56.624C44.009 55.968 44.111 55.045 44.111 55.045L45.069 55.156Z" fill="#738E9E"/>
<path d="M53.385 54.306C53.385 54.306 53.606 54.909 53.707 55.641C53.807 56.373 53.921 57.726 53.921 57.726L54.776 57.5C54.776 57.5 54.796 56.181 54.694 55.532C54.592 54.883 54.298 54.001 54.298 54.001L53.385 54.306Z" fill="#738E9E"/>
<path d="M36.792 53.266C36.792 53.266 36.662 54.055 36.697 54.683C36.732 55.311 36.964 56.366 36.964 56.366L36.307 55.729C36.307 55.729 36.102 54.659 36.083 54.318C36.064 53.977 36.279 52.95 36.279 52.95L36.792 53.266Z" fill="#738E9E"/>
<path d="M34.422 57.085C34.362 57.09 34.3 57.087 34.236 57.075L34.311 56.705C34.782 56.802 35.263 55.573 35.409 54.965L35.784 55.049C35.731 55.262 35.288 57.013 34.422 57.085Z" fill="#8C92B0"/>
<path d="M41.043 57.505C40.941 57.505 40.836 57.492 40.729 57.468L39.049 57.088C38.333 56.926 37.722 56.283 37.657 55.625L37.595 54.997C37.564 54.676 37.665 54.395 37.88 54.204C38.123 53.989 38.486 53.916 38.877 54.005L40.557 54.386C41.273 54.548 41.884 55.191 41.949 55.849L42.011 56.477C42.042 56.797 41.941 57.079 41.726 57.269C41.549 57.425 41.31 57.506 41.043 57.505ZM38.653 54.687C38.541 54.687 38.447 54.716 38.382 54.774C38.315 54.833 38.287 54.916 38.297 55.022L38.359 55.65C38.389 55.959 38.741 56.303 39.112 56.387L40.792 56.767C40.972 56.807 41.13 56.783 41.225 56.7C41.292 56.641 41.32 56.557 41.31 56.452L41.248 55.824C41.217 55.515 40.866 55.171 40.495 55.087L38.815 54.706C38.758 54.694 38.704 54.688 38.653 54.687Z" fill="#CCDEFB"/>
<path d="M57.673 30.477C57.673 30.477 58.092 20.968 54.264 18.756C50.437 16.543 46.968 13.673 40.569 13.314C34.17 12.955 28.788 14.45 27.891 17.381C26.994 20.311 27.054 26.172 28.728 31.076C30.402 35.98 32.212 39.598 32.391 40.719C32.57 41.84 32.436 43.231 33.153 44.756C33.871 46.281 33.332 47.671 33.512 48.658C33.691 49.645 34.14 50.362 34.095 50.766C34.05 51.17 34.011 52.172 34.235 52.71C34.459 53.248 37.279 55.497 43.514 56.266C47.266 56.729 57.373 55.386 57.059 53.054C56.745 50.722 56.745 50.722 56.745 50.722C56.745 50.722 57.463 50.318 57.059 47.134C56.655 43.949 55.669 38.881 55.669 38.522C55.669 38.163 57.673 30.477 57.673 30.477Z" fill="#92BACF"/>
<path d="M51.316 52.691C48.495 53.402 43.48 52.875 39.8 52.2C36.317 51.562 33.779 48.987 33.508 48.656C33.103 48.153 32.834 46.154 32.552 44.302C32.393 43.211 32.221 42.168 32.037 41.493C31.927 41.125 31.792 40.671 31.657 40.169C31.461 39.531 31.24 38.795 31.007 38.011C30.504 36.368 29.928 34.528 29.401 32.97C29.364 32.86 29.327 32.737 29.278 32.59C29.021 31.67 28.751 30.211 28.542 28.506C28.248 26.078 28.076 23.159 28.223 20.584C28.223 20.572 28.223 20.572 28.223 20.559C28.333 18.548 28.652 16.733 29.265 15.531C31.264 11.533 40.119 12.293 46.005 14.354C51.904 16.427 52.701 17.812 52.701 17.812C52.701 17.812 48.47 18.597 48.568 24.447C48.593 26.078 48.691 27.611 48.875 29.009C49.01 30.187 49.218 31.29 49.501 32.284C49.967 34.062 50.654 35.521 51.549 36.613C51.672 36.773 51.806 36.92 51.941 37.067C53.155 38.318 54.332 37.778 55.166 37.006C55.902 36.319 56.368 35.461 56.368 35.461C56.368 35.461 56.098 37.865 56.172 39.766C56.184 40.416 56.246 41.017 56.368 41.434C56.527 42.01 56.724 42.807 56.908 43.629C57.251 45.162 57.558 46.805 57.619 47.394C57.718 48.288 56.406 51.416 51.316 52.691Z" fill="#ADFF91"/>
<path d="M56.909 43.628C55.56 45.124 53.377 46.78 50.139 47.393C49.06 47.589 47.821 47.7 46.448 47.7C42.548 47.7 37.618 46.78 32.553 44.303C32.394 43.212 32.222 42.169 32.038 41.494C31.928 41.126 31.793 40.672 31.658 40.17C38.612 44.266 45.455 44.977 49.539 44.217C54.15 43.358 55.794 39.643 55.806 39.606L56.174 39.765C56.186 40.415 56.248 41.016 56.37 41.433C56.528 42.009 56.725 42.806 56.909 43.628Z" fill="#F4F4F4"/>
<path d="M55.167 37.006C54.038 39.14 51.77 41.433 47.686 41.973C47.122 42.047 46.484 42.096 45.797 42.096C41.627 42.096 35.606 40.698 31.007 38.012C30.504 36.369 29.928 34.529 29.401 32.971C29.364 32.861 29.327 32.738 29.278 32.591C33.215 36.993 42.756 39.385 47.257 38.772C49.415 38.49 50.74 37.57 51.549 36.613C51.672 36.773 51.806 36.92 51.941 37.067C53.156 38.318 54.333 37.778 55.167 37.006Z" fill="#F4F4F4"/>
<path d="M49.501 32.284C48.091 32.897 46.41 33.228 44.228 33.228C42.18 33.228 39.703 32.933 36.624 32.271C32.786 31.449 30.235 30.064 28.542 28.506C28.248 26.078 28.076 23.159 28.223 20.584L26.948 20.314L28.223 20.56L28.53 20.621C28.53 20.634 28.53 20.634 28.53 20.646C28.407 21.382 27.733 27.06 37.299 29.12C43.529 30.445 46.693 30.236 48.876 29.009C49.011 30.187 49.219 31.291 49.501 32.284Z" fill="#F4F4F4"/>
<path d="M45.907 14.705C45.907 14.705 46.598 14.974 45.296 17.306C43.993 19.638 42.731 21.08 41.325 22.591C39.773 24.258 39.773 25.661 38.208 25.529C37.685 25.485 33.421 19.805 33.481 17.464C33.54 15.123 40.884 11.475 45.907 14.705Z" fill="#92BACF"/>
<path d="M45.286 15.534C45.191 16.448 42.729 21.544 38.132 20.647C33.535 19.75 34.095 17.104 34.499 15.758C34.903 14.412 36.57 13.067 40.569 13.314C44.569 13.561 45.398 14.458 45.286 15.534Z" fill="url(#paint0_linear_2_1949)"/>
<path d="M51.364 21.357C49.682 23.779 50.119 27.686 51.33 31.499C52.541 35.312 55.281 40.345 57.015 42.557C58.331 46.325 60.005 54.548 60.723 55.445C61.441 56.342 61.68 58.614 61.919 59.003C62.158 59.392 66.255 59.475 66.524 58.79C66.225 55.385 66.225 55.116 66.375 54.547C66.524 53.979 67.033 51.676 67.152 50.211C67.272 48.746 65.029 41.151 64.251 39.207C63.474 37.263 60.962 31.104 59.048 27.007C57.134 22.91 56.693 21.512 55.518 19.906C54.456 18.456 52.111 20.281 51.364 21.357Z" fill="#B9D3E1"/>
<path d="M62.203 58.421C62.203 58.421 62.009 59.6619 62.203 60.3499C62.397 61.0379 62.726 61.636 62.726 61.636C62.726 61.636 62.367 61.875 62.337 62.533C62.307 63.191 63.144 63.998 63.593 64.417C64.041 64.836 65.626 65.344 65.626 65.344C65.626 65.344 66.224 66.062 66.703 66.271C67.181 66.48 67.66 66.45 67.69 65.942C67.72 65.434 67.6 65.0299 67.6 65.0299C67.6 65.0299 68.348 64.582 68.572 64.253C68.796 63.924 69.155 62.2499 69.08 61.9359C69.005 61.6219 66.748 59.5369 66.374 58.7929C66.001 58.0469 63.295 56.94 62.203 58.421Z" fill="#FFCC54"/>
<path d="M66.546 62.041C66.546 62.041 67.062 63.022 67.309 63.235C67.556 63.448 67.511 63.258 67.511 63.717C67.511 64.177 67.514 64.356 67.514 64.356L66.86 64.479C66.86 64.479 65.447 64.434 65.167 63.907C64.887 63.38 64.853 63.167 64.752 63.055C64.651 62.943 64.505 62.864 64.505 62.864L64.314 63.133L64.348 63.896C64.348 63.896 64.202 63.324 64.202 63.19C64.202 63.055 64.337 62.753 64.449 62.764C64.561 62.775 64.202 62.455 64.202 62.455L63.72 62.517L63.989 62.214L63.327 61.878L62.624 61.729L62.725 61.635L62.579 61.344C62.579 61.344 63.394 61.766 63.517 61.8C63.64 61.834 63.797 62.002 63.764 61.834C63.73 61.666 63.125 61.172 63.001 60.399C63.834 61.585 65.199 62.44 65.199 62.44L66.546 62.041Z" fill="#FEBFBF"/>
<path d="M67.037 66.227L67.298 66.591C67.298 66.591 66.782 63.799 66.439 63.233C66.096 62.667 64.764 61.231 62.992 61.4C61.22 61.568 62.095 62.959 62.286 64.181C62.477 65.403 62.062 67.758 62.062 67.758C62.062 67.758 63.251 65.224 63.521 64.348C63.282 64.152 62.97 63.785 62.395 62.885C62.033 61.477 63.329 61.878 63.329 61.878C63.811 61.874 64.253 62.338 64.253 62.338L65.663 64.307C65.805 64.663 65.894 64.971 65.894 64.971L67.037 66.227Z" fill="#382D3C"/>
<path d="M69.328 66.7589C69.328 66.7589 68.296 64.039 66.794 62.736C65.291 61.433 64.167 62.2649 64.252 62.3369C65.538 63.4159 65.856 65.546 67.21 67.277C68.563 69.007 69.328 66.7589 69.328 66.7589Z" fill="#382D3C"/>
<path d="M67.077 63.489C66.943 62.831 66.972 62.009 66.688 61.545C66.404 61.081 65.582 60.199 64.909 59.826C64.236 59.452 63.668 60.379 63.668 60.873C63.668 61.367 63.922 61.949 64.55 62.473C65.178 62.996 65.221 63.5939 65.603 64.1629C65.985 64.7319 66.517 65.239 67.156 65.165C67.794 65.09 67.615 64.5669 67.331 64.1629C67.047 63.7589 67.077 63.489 67.077 63.489Z" fill="#FFCC54"/>
<path d="M45.027 15.287C45.027 15.287 45.142 16.977 43.452 18.771C43.448 18.771 43.448 18.775 43.445 18.778C43.029 19.219 42.498 19.671 41.83 20.102C39.053 21.892 36.358 21.024 35.106 19.775C34.833 19.506 34.625 19.219 34.503 18.935C33.814 17.349 33.785 14.45 37.582 13.969C41.382 13.493 45.221 14.096 45.027 15.287Z" fill="url(#paint1_linear_2_1949)"/>
<path d="M42.636 13.404C42.636 13.404 41.261 11.789 40.692 10.085C40.124 8.381 40.363 5.86901 37.612 5.66001C34.861 5.45101 31.901 9.06901 32.738 12.328C33.575 15.587 35.967 19.504 36.326 19.833C36.685 20.162 36.774 20.85 38.628 20.939C40.482 21.029 44.758 18.432 45.027 15.439C44.728 14.929 44.13 14.57 44.13 14.57C44.13 14.57 43.107 14.012 42.636 13.404Z" fill="url(#paint2_linear_2_1949)"/>
<path d="M43.445 18.779C43.029 19.22 42.498 19.672 41.83 20.103C39.053 21.893 36.358 21.025 35.106 19.776L34.952 19.033L39.441 16.633C39.441 16.633 39.728 17.935 39.079 18.538C38.43 19.144 38.713 19.812 39.592 20.153C40.471 20.498 41.82 20.21 43.431 18.79C43.434 18.786 43.441 18.782 43.445 18.779Z" fill="url(#paint3_linear_2_1949)"/>
<path d="M38.36 8.85801C38.36 8.85801 37.523 10.204 38.36 11.878C39.197 13.552 39.683 14.86 39.683 15.601C39.683 17.799 36.188 19.864 34.817 20.288C33.561 20.677 30.825 17.111 29.958 15.706C29.091 14.301 28.134 14.36 27.476 11.699C26.818 9.03802 27.924 7.36302 28.941 6.43602C29.958 5.51002 36.9 1.68701 38.36 8.85801Z" fill="#FEC7C7"/>
<path d="M38.3 13.075L37.642 13.613C37.642 13.613 37.194 13.015 36.625 12.746C36.057 12.477 34.897 12.596 34.146 11.729C33.395 10.862 32.917 9.87501 31.482 9.78501C30.047 9.69501 28.702 11.342 27.326 10.907C27.412 11.418 27.412 11.418 27.412 11.418C27.412 11.418 26.339 11.37 26.189 10.293C26.04 9.21701 26.04 4.283 29.598 2.399C33.156 0.514995 35.399 0.844011 35.997 1.20301C38 0.994011 40.034 2.63799 40.542 3.98399C41.05 5.32899 41.23 7.09399 41.648 7.75199C42.067 8.40999 41.317 11.513 41.583 11.928C41.849 12.343 41.849 12.343 41.849 12.343C41.849 12.343 40.811 11.311 40.392 10.503C39.973 9.696 38.427 9.04201 38.004 10.685C37.583 12.327 38.3 13.075 38.3 13.075Z" fill="#754554"/>
<path d="M38.241 10.772C38.241 10.772 38.181 9.63597 39.273 9.44097C40.364 9.24697 40.535 9.53697 40.614 10.398C40.704 11.375 40.499 12.055 40.505 12.641C40.514 13.612 39.969 13.751 39.592 13.538C39.216 13.325 38.361 11.953 38.316 11.445C38.271 10.937 38.241 10.772 38.241 10.772Z" fill="url(#paint4_linear_2_1949)"/>
<path d="M38.811 11.266C38.811 11.266 38.296 10.235 39.033 10.055C39.77 9.875 40.349 9.696 40.229 10.728C40.109 11.76 40.274 12.281 39.855 12.454C39.437 12.626 38.947 11.651 38.811 11.266Z" fill="url(#paint5_linear_2_1949)"/>
<path d="M67.481 94.297C66.957 95.104 66.422 95.836 65.888 96.45C64.359 98.219 62.842 99.026 61.683 97.885C61.349 97.558 61.048 97.07 60.782 96.396C60.768 96.357 60.75 96.317 60.735 96.278L63.516 95.237L63.681 95.176L63.835 95.119L67.054 93.917L67.352 94.183L67.481 94.297Z" fill="#EFF4FA"/>
<path d="M70.419 88.728C70.15 89.345 69.863 89.97 69.558 90.587C69.4 90.91 69.239 91.233 69.074 91.549C68.625 92.403 68.155 93.232 67.667 94L67.351 94.183L64.52 95.819L64.104 95.579L63.663 95.324L63.516 95.238L59.677 93.02C59.666 92.988 59.655 92.959 59.648 92.927L63.017 90.982L63.763 90.551L68.668 87.716L70.419 88.728Z" fill="#DDE7F4"/>
<path d="M64.312 90.572L64.208 91.343L64.043 92.541L63.716 94.913L63.68 95.175L63.662 95.322L63.3 97.952L61.682 97.884C61.348 97.557 61.047 97.069 60.781 96.395C60.767 96.356 60.749 96.316 60.734 96.277C60.314 95.197 59.963 94.11 59.676 93.019C59.665 92.987 59.654 92.958 59.647 92.926C59.421 92.068 59.234 91.211 59.084 90.353L61.739 90.464L63.763 90.55L64.312 90.572Z" fill="#DCE5F2"/>
<path d="M69.074 91.548C68.625 92.402 68.155 93.231 67.667 93.999C67.606 94.099 67.545 94.2 67.48 94.297C66.956 95.104 66.421 95.836 65.887 96.45L64.746 96.676L64.104 95.578L63.835 95.119L63.717 94.914L62.508 92.847L64.044 92.542L66.523 92.054L68.575 91.645L69.074 91.548Z" fill="#F7F9FC"/>
<path d="M71.743 85.255C71.399 86.331 70.946 87.519 70.419 88.728C70.15 89.345 69.863 89.97 69.558 90.587L68.578 91.645H68.574L67.828 92.452L66.525 92.054H66.521L64.207 91.344L63.016 90.982L61.649 90.562L61.739 90.465L67.71 84.021L71.743 85.255Z" fill="#EFF4FA"/>
<path d="M14.334 119.144L15.682 109.332L6.38699 108.94L5.039 118.752L14.334 119.144Z" fill="#DCE5F2"/>
<path d="M9.72101 110.205C9.74501 111.946 9.758 113.686 9.793 115.427C9.992 115.445 10.19 115.456 10.386 115.435C10.423 113.629 10.436 111.823 10.461 110.018C10.215 110.083 9.96901 110.145 9.72101 110.205Z" fill="#C5C2C2"/>
<path d="M3.77399 114.494L19.923 111.295L16.947 106.204L0.798004 109.403L3.77399 114.494Z" fill="#F7F9FC"/>
<path d="M9.664 106.629C9.677 107.87 9.68899 109.112 9.70499 110.354C9.96199 110.468 10.217 110.544 10.471 110.581C10.49 109.177 10.503 107.774 10.518 106.37C10.23 106.442 9.947 106.532 9.664 106.629Z" fill="#C5C2C2"/>
<path d="M58.167 90.774C58.167 90.774 58.705 97.891 61.994 100.043C65.283 102.196 68.034 96.275 70.666 90.774C69.889 98.07 67.795 100.043 70.666 102.495C73.537 104.947 64.875 107.698 62.508 103.87C60.141 100.043 57.928 99.392 57.928 99.392C57.928 99.392 59.004 98.07 58.167 90.774Z" fill="#302534"/>
<path d="M96.082 92.68C96.082 92.68 92.314 89.396 84.361 93.076C76.407 96.755 73.938 98.667 78.276 95.819C84.78 91.549 80.952 89.145 80.354 86.402C79.756 83.659 79.418 83.36 79.418 83.36C79.418 83.36 79.803 82.776 81.61 85.034C84.959 89.219 94.527 90.698 96.082 92.68Z" fill="#302534"/>
<path d="M10.599 46.281C10.951 45.893 10.871 45.124 10.871 44.673C10.87 43.923 10.87 43.173 10.869 42.424C10.868 40.888 10.867 39.351 10.865 37.815C10.865 37.6 10.865 37.386 10.864 37.171C10.864 36.907 10.869 36.745 10.708 36.516C10.541 36.281 10.286 36.328 10.032 36.326C9.75102 36.325 9.342 36.474 9.317 36.808C9.298 37.058 9.317 37.316 9.317 37.567C9.317 37.929 9.31702 38.29 9.31602 38.652C9.31502 40.192 9.31402 41.732 9.31202 43.272C9.31202 43.924 9.31101 44.575 9.31101 45.226C9.31101 45.532 9.24802 45.832 9.41102 46.093C9.67802 46.519 10.239 46.675 10.599 46.281Z" fill="#C5C2C2"/>
<defs>
<linearGradient id="paint0_linear_2_1949" x1="45.4922" y1="16.5902" x2="35.7592" y2="17.263" gradientUnits="userSpaceOnUse">
<stop offset="0.1224" stop-color="#FEC7C7"/>
<stop offset="0.9694" stop-color="#FFADB7"/>
</linearGradient>
<linearGradient id="paint1_linear_2_1949" x1="45.5221" y1="17.021" x2="35.789" y2="17.6938" gradientUnits="userSpaceOnUse">
<stop offset="0.1224" stop-color="#FEC7C7"/>
<stop offset="0.9694" stop-color="#FFADB7"/>
</linearGradient>
<linearGradient id="paint2_linear_2_1949" x1="45.2302" y1="12.7987" x2="35.4972" y2="13.4715" gradientUnits="userSpaceOnUse">
<stop offset="0.1224" stop-color="#FEC7C7"/>
<stop offset="0.9694" stop-color="#FFADB7"/>
</linearGradient>
<linearGradient id="paint3_linear_2_1949" x1="35.7842" y1="19.4311" x2="41.3459" y2="18.534" gradientUnits="userSpaceOnUse">
<stop offset="0.1224" stop-color="#FCA4B5"/>
<stop offset="0.9896" stop-color="#FFADB7"/>
</linearGradient>
<linearGradient id="paint4_linear_2_1949" x1="39.8989" y1="11.1268" x2="40.5418" y2="10.4391" gradientUnits="userSpaceOnUse">
<stop offset="0.1224" stop-color="#FEC7C7"/>
<stop offset="1" stop-color="#FFDEDE"/>
</linearGradient>
<linearGradient id="paint5_linear_2_1949" x1="38.6361" y1="11.195" x2="40.2447" y2="11.195" gradientUnits="userSpaceOnUse">
<stop offset="0.1224" stop-color="#FCA4B5"/>
<stop offset="0.9896" stop-color="#FFADB7"/>
</linearGradient>
</defs>
</svg>
