<?xml version="1.0" encoding="utf-8"?>
<!-- Generator: Adobe Illustrator 24.0.0, SVG Export Plug-In . SVG Version: 6.00 Build 0)  -->
<svg version="1.1" xmlns="http://www.w3.org/2000/svg" xmlns:xlink="http://www.w3.org/1999/xlink" x="0px" y="0px"
	 viewBox="0 0 24 24" style="enable-background:new 0 0 24 24;" xml:space="preserve">
<g id="Layer_1">
</g>
<g id="Layer_2">
	<g>
		<path style="fill-rule:evenodd;clip-rule:evenodd;fill:#DFE6E9;stroke:#231915;stroke-width:0.25;stroke-miterlimit:10;" d="
			M11.31,6.53c0-0.66,0.54-1.21,1.21-1.21h7.58c0.69,0.03,2.06,2.95,2.11,3.62v0.49v2.69c0,0.6-0.49,1.08-1.08,1.08h-9.82V6.53z"/>
		<path style="fill-rule:evenodd;clip-rule:evenodd;fill:#DFE6E9;stroke:#231915;stroke-width:0.25;stroke-miterlimit:10;" d="
			M1.92,14.29h6.72c0.07,0,0.13,0.06,0.13,0.13v0.74c0,0.07-0.06,0.13-0.13,0.13H1.92c-0.07,0-0.13-0.06-0.13-0.13v-0.74
			C1.79,14.34,1.85,14.29,1.92,14.29L1.92,14.29z"/>
		<path style="fill-rule:evenodd;clip-rule:evenodd;fill:#017E9A;stroke:#231915;stroke-width:0.25;stroke-miterlimit:10;" d="
			M3.31,11.06h7.43v2.72h5.38c-0.76,0.36-1.3,1.1-1.38,1.98h-0.08H9.26v-1.98H3.68c-0.2,0-0.37-0.17-0.37-0.37V11.06z M18.18,13.77
			h3.14h0.69c0.1,0,0.17,0.08,0.17,0.17v1.14c0,0.06-0.03,0.11-0.07,0.14l0,0l0,0c-0.03,0.02-0.07,0.03-0.1,0.03H22l-1.83,0.53
			h-0.43l-0.17,0C19.51,14.9,18.96,14.14,18.18,13.77L18.18,13.77z"/>
		<path style="fill-rule:evenodd;clip-rule:evenodd;fill:#DFE6E9;stroke:#231915;stroke-width:0.25;stroke-miterlimit:10;" d="
			M10.74,11.06H3.4c-0.21,0-0.04-0.68,0.03-0.88l0.91-2.43c0.09-0.24,0.21-0.47,0.47-0.47h5.45c0.26,0,0.47,0.21,0.47,0.47V11.06z
			 M8.72,7.72H5.15c-0.22,0-0.32,0.18-0.4,0.38l-0.86,2.22c-0.08,0.19,0.18,0.38,0.4,0.38h4.43c0.22,0,0.4-0.17,0.4-0.38V8.1
			C9.11,7.89,8.94,7.72,8.72,7.72L8.72,7.72z"/>
		<path style="fill-rule:evenodd;clip-rule:evenodd;fill:#017E9A;stroke:#231915;stroke-width:0.25;stroke-miterlimit:10;" d="
			M2.01,15.78h0.57c0.12,0,0.21,0.1,0.21,0.21v1.81h-1v-1.81C1.79,15.87,1.89,15.78,2.01,15.78L2.01,15.78z"/>
		<path style="fill-rule:evenodd;clip-rule:evenodd;fill:#017E9A;stroke:#231915;stroke-width:0.25;stroke-miterlimit:10;" d="
			M3.5,15.78h0.57c0.12,0,0.21,0.1,0.21,0.21v1.81h-1v-1.81C3.28,15.87,3.38,15.78,3.5,15.78L3.5,15.78z"/>
		<path style="fill-rule:evenodd;clip-rule:evenodd;fill:#017E9A;stroke:#231915;stroke-width:0.25;stroke-miterlimit:10;" d="
			M4.99,15.78h0.57c0.12,0,0.21,0.1,0.21,0.21v1.81h-1v-1.81C4.77,15.87,4.87,15.78,4.99,15.78L4.99,15.78z"/>
		<path style="fill-rule:evenodd;clip-rule:evenodd;fill:#017E9A;stroke:#231915;stroke-width:0.25;stroke-miterlimit:10;" d="
			M6.48,15.78h0.57c0.12,0,0.21,0.1,0.21,0.21v1.81h-1v-1.81C6.26,15.87,6.36,15.78,6.48,15.78L6.48,15.78z"/>
		<path style="fill-rule:evenodd;clip-rule:evenodd;fill:#017E9A;stroke:#231915;stroke-width:0.25;stroke-miterlimit:10;" d="
			M7.97,15.78h0.57c0.12,0,0.21,0.1,0.21,0.21v1.81h-1v-1.81C7.75,15.87,7.85,15.78,7.97,15.78L7.97,15.78z"/>
		<path style="fill-rule:evenodd;clip-rule:evenodd;fill:#231915;stroke:#231915;stroke-width:0.25;stroke-miterlimit:10;" d="
			M17.15,17.74c-0.98,0-1.78-0.8-1.78-1.78s0.8-1.78,1.78-1.78c0.98,0,1.78,0.8,1.78,1.78S18.13,17.74,17.15,17.74L17.15,17.74z"/>
	</g>
</g>
</svg>
