<?xml version="1.0" encoding="utf-8"?>
<!-- Generator: Adobe Illustrator 22.1.0, SVG Export Plug-In . SVG Version: 6.00 Build 0)  -->
<svg version="1.1" id="Layer_1" xmlns="http://www.w3.org/2000/svg" xmlns:xlink="http://www.w3.org/1999/xlink" x="0px" y="0px"
	 viewBox="0 0 100 76.4" style="enable-background:new 0 0 100 76.4;" xml:space="preserve">
<polygon points="46.6,7 88,7 100,26.3 100,45.6 46.6,45.6 "/>
<path d="M67.8,48.4h-24V16.6H15.2L7.4,35.1v13.3l29.2,0v9.7H63C63,54.2,64.9,50.6,67.8,48.4z M22.6,35.4H11.1l6.4-15.3h19.2v15.3
	H22.6z"/>
<path d="M99.9,48.4H83.1c2.9,2.3,4.8,5.9,4.8,9.9H90l9.9-2.6L99.9,48.4z"/>
<path d="M75.4,48.4c-5.4,0-9.9,4.4-9.9,9.9c0,5.4,4.4,9.9,9.9,9.9c5.4,0,9.9-4.4,9.9-9.9C85.3,52.8,80.9,48.4,75.4,48.4z M75.4,62.2
	c-2.2,0-4-1.8-4-4c0-2.2,1.8-4,4-4c2.2,0,4,1.8,4,4C79.5,60.4,77.7,62.2,75.4,62.2z"/>
<polygon points="32.6,14.2 22.7,14.2 23.9,9.1 31.4,9.1 "/>
<rect y="50.9" width="34.2" height="4.9"/>
<rect y="58.2" width="4.9" height="9.9"/>
<rect x="7.3" y="58.2" width="4.9" height="9.9"/>
<rect x="14.6" y="58.2" width="4.9" height="9.9"/>
<rect x="22" y="58.2" width="4.9" height="9.9"/>
<rect x="29.3" y="58.2" width="4.9" height="9.9"/>
</svg>
