<?xml version="1.0" encoding="UTF-8" standalone="no"?>
<svg
   xmlns:dc="http://purl.org/dc/elements/1.1/"
   xmlns:cc="http://creativecommons.org/ns#"
   xmlns:rdf="http://www.w3.org/1999/02/22-rdf-syntax-ns#"
   xmlns:svg="http://www.w3.org/2000/svg"
   xmlns="http://www.w3.org/2000/svg"
   id="svg8"
   version="1.1"
   viewBox="0 0 1000 1000"
   height="1000"
   width="1000">
  <defs
     id="defs2" />
  <metadata
     id="metadata5">
    <rdf:RDF>
      <cc:Work
         rdf:about="">
        <dc:format>image/svg+xml</dc:format>
        <dc:type
           rdf:resource="http://purl.org/dc/dcmitype/StillImage" />
        <dc:title></dc:title>
      </cc:Work>
    </rdf:RDF>
  </metadata>
  <g
     transform="translate(0,-122.51965)"
     id="layer1">
    <g
       transform="translate(-9.006128,167.40197)"
       id="g1017">
      <path
         style="fill:#1a1a1a;fill-opacity:1;stroke:none;stroke-width:1px;stroke-linecap:butt;stroke-linejoin:miter;stroke-opacity:1"
         d="m 530.82031,141.39258 c -28.16467,0.14924 -53.69309,3.94497 -66.89258,10.93945 -26.39898,13.98896 -25.75299,71.19356 -27.02734,88.59766 -0.48731,6.65534 -0.76207,21.54466 -0.91601,37.39258 -0.0281,0.34042 -0.0379,0.52747 -0.0684,0.88671 -0.41847,4.93641 -1.064,11.66016 -1.57032,17.1836 -0.50631,5.52344 -0.87396,9.85096 -2.39258,12.15234 -1.51859,2.30138 -4.18805,2.57912 -5.98437,1.33594 -1.79632,-1.24318 -2.71752,-4.00447 -3.4082,-6.42578 -0.69068,-2.42132 -1.15065,-4.50257 -1.97852,-5.54102 -0.82787,-1.03845 -2.02535,-1.03906 -61.14844,-1.03906 H 124.1875 c -58.952983,0 -59.926484,-1.5e-4 -60.416016,-0.32617 -0.489531,-0.32602 -0.489763,-0.97281 -0.457031,-1.40821 0.03273,-0.43533 0.09643,-0.65243 59.017577,-0.75976 58.92116,-0.10733 176.48241,-0.10698 235.80274,-0.19922 59.32033,-0.0922 59.96762,-0.27637 60.29101,-4.41992 0.3234,-4.14355 0.32422,-12.2429 0.32422,-17.77344 0,-5.53053 -5.9e-4,-8.48141 -0.0332,-10.17383 -0.0326,-1.69241 -0.0963,-2.115 -36.91211,-2.32617 -36.81585,-0.21117 -110.41222,-0.21078 -148.69531,0.17969 -38.28311,0.39047 -41.31401,1.17175 -43.73829,2.31055 -2.42427,1.13879 -4.24695,2.63662 -5.64648,4.50781 -1.39953,1.87118 -2.37906,4.12325 -2.83399,5.29297 -0.45491,1.16971 -0.3886,1.26745 13.41407,1.3164 13.80267,0.049 41.32887,0.0495 56.19531,0.0332 14.86644,-0.0163 17.04969,-0.0502 17.99219,0.48632 0.94249,0.53654 0.6471,1.64724 0.41992,2.36133 -0.22718,0.7141 -0.38952,1.03977 -35.72461,1.20313 -35.33509,0.16336 -105.89252,0.16448 -141.902344,0.75 -36.009825,0.58551 -37.572572,1.75674 -38.386718,4.32812 -0.814155,2.57138 -0.880339,6.55115 -0.945313,8.79297 -0.06497,2.24183 -0.129999,2.76256 -1.626953,3.02344 -1.496955,0.26088 -4.434807,0.26113 -6.074219,0.27734 -1.639411,0.0162 -1.997619,0.0493 -2.291015,1.5625 -0.293405,1.51317 -0.52188,4.50709 0.259765,6.00586 0.781645,1.49877 2.570237,1.49867 4.019531,1.53125 1.449295,0.0326 2.555089,0.097 3.451172,0.11328 0.896083,0.0163 1.578661,-0.0171 1.919922,14.875 0.341261,14.8921 0.341089,44.72408 0.210938,60.86328 -0.130151,16.13921 -0.389179,18.612 2.541015,19.06836 2.930195,0.45636 9.048262,-1.10611 14.322266,-1.82226 5.274004,-0.71615 9.703134,-0.58601 11.785156,0.8457 2.082022,1.43171 1.820428,4.16812 1.875,8.88086 0.03822,3.30113 0.244666,7.56393 0.990235,11.41992 H 59.859375 c -7.174254,0 -8.095891,-10e-4 -8.556641,2.16211 -0.460749,2.16317 -0.458886,6.48874 0.324219,8.6543 0.783105,2.16555 2.34774,2.16406 10.496094,2.16406 7.913886,0 21.983126,-0.003 29.748047,-0.42578 0.785871,0.42806 1.605036,0.83298 2.486328,1.20312 4.588008,1.92708 10.447328,3.20389 16.748048,4.75586 6.30072,1.55198 13.03621,3.37788 17.25195,0.63477 4.21574,-2.74311 5.90701,-10.05099 9.85742,-19.875 3.95042,-9.82401 10.15815,-22.15482 18.23438,-31.02148 8.07623,-8.86667 18.01421,-14.26315 31.06836,-17.25586 13.05415,-2.99272 29.21587,-3.58098 42.93554,-2.72657 13.71973,0.85442 24.99118,3.15161 33.92188,7.3711 8.9307,4.21949 15.52106,10.36148 20.98242,18.70117 5.46137,8.33969 9.79378,18.87619 12.39649,28.36914 2.6027,9.49295 3.47393,17.94292 5.42187,23.9707 1.94794,6.02779 4.97314,9.63411 13.91797,11.14453 8.94483,1.51042 23.80776,0.92411 49.83789,1.1836 26.03013,0.25949 63.2258,1.36391 110.11719,2.08008 46.89139,0.71616 103.4679,1.04393 135.60547,1.14257 32.13756,0.0987 39.81396,-0.0326 43.72265,-0.81445 3.90869,-0.78183 4.03886,-2.2119 4.23438,-3.38476 0.19552,-1.17287 0.45717,-2.08408 1.82422,-1.41993 1.36704,0.66415 3.84065,2.90216 11.70117,4.02149 7.86052,1.11933 21.10362,1.11981 30.16797,0.93554 9.06434,-0.18418 13.94152,-0.55221 17.30273,-2.48632 3.36121,-1.93412 5.20244,-5.43176 7.41211,-11.87696 2.20967,-6.4452 4.78813,-15.83527 8.28711,-25.36523 3.49898,-9.52997 7.918,-19.19594 13.30469,-27.62109 5.38668,-8.42516 11.73892,-15.60724 19.19726,-20.53321 7.45834,-4.92596 16.01987,-7.59585 27.29883,-9.20703 11.27896,-1.61118 25.27199,-2.16241 37.19531,-0.45898 11.92333,1.70343 21.77651,5.66153 29.74024,11.83008 7.96373,6.16852 14.04023,14.54754 18.48242,23.01757 4.44219,8.47004 7.25136,17.03436 11.50977,24.07813 4.2584,7.04377 9.96554,12.56586 14.01757,15.78906 4.05203,3.22321 6.44454,4.14408 9.32227,4.76563 2.87773,0.62154 6.23307,0.94341 8.26172,0.94335 2.02865,-4e-5 2.71721,-0.32339 2.92383,-2.0039 0.20662,-1.68052 -0.0685,-4.71233 0.16211,-6.41797 0.23059,-1.70564 0.96703,-2.07422 1.95703,-2.28125 0.98999,-0.20703 2.234,-0.25407 2.78515,0.13672 0.55116,0.39079 0.41349,1.22025 0.48243,3.01562 0.0689,1.79538 0.3447,4.55748 1.03515,7.06641 0.69045,2.50893 1.79507,4.76411 3.77539,5.89258 1.98033,1.12847 4.83357,1.12802 9.64453,0.96679 4.81097,-0.16113 11.57468,-0.48235 15.9961,-0.91992 4.42142,-0.43756 6.49244,-0.98924 8.21875,-3.10742 1.72631,-2.11817 3.10773,-5.80054 3.54492,-10.08203 0.43719,-4.28149 -0.0695,-9.16135 -0.7832,-12.89063 -0.71367,-3.72926 -1.63521,-6.30661 -4.09766,-8.30859 -2.46245,-2.00197 -6.46862,-3.4302 -9.73633,-4.30469 -3.2677,-0.87448 -5.80078,-1.1959 -7.89453,-1.33398 -2.09375,-0.13808 -3.74851,-0.0935 -4.60156,-0.53125 -0.85305,-0.43778 -0.90053,-1.35929 -1.52149,-1.8418 -0.62096,-0.48251 -1.81834,-0.52716 -3.95898,-0.9414 -2.14064,-0.41425 -5.22393,-1.19798 -7.3418,-2.09571 -2.11786,-0.89773 -3.26794,-1.91017 -2.09375,-2.34765 1.1742,-0.43749 4.66999,-0.29831 7.88086,-0.16016 3.21087,0.13815 6.13172,0.27529 7.72266,-0.88281 1.59093,-1.1581 1.8503,-3.60831 1.67383,-6.07227 -0.17648,-2.46395 -0.78764,-4.93516 -2.7461,-5.9414 -1.95846,-1.00624 -5.26557,-0.54577 -8.02344,-1.1211 -2.75783,-0.57532 -4.96282,-2.18508 -6.02343,-3.33789 -1.06062,-1.15281 -0.96821,-1.84301 1.33398,-2.0957 2.3022,-0.25269 6.80987,-0.0689 9.87305,-0.32227 3.06318,-0.2534 4.67272,-0.94272 5.31445,-2.63281 0.64173,-1.69009 0.31601,-4.38033 -1.50195,-6.03711 -1.81796,-1.65678 -5.12872,-2.28283 -7.86524,-3.00976 -2.73651,-0.72693 -4.89793,-1.55332 -5.33593,-2.38282 -0.438,-0.82949 0.85051,-1.65812 3.54687,-1.76172 2.69637,-0.10359 6.79615,0.51558 8.88672,-0.58789 2.09058,-1.10346 2.16498,-3.92539 1.10547,-5.74414 -1.05951,-1.81875 -3.25279,-2.6317 -4.91016,-3.57812 -1.65737,-0.94642 -2.7774,-2.02397 -2.125,-4.6582 0.65241,-2.6343 3.07468,-6.8207 3.63477,-11.29102 0.56009,-4.47032 -0.74103,-9.22174 -2.82422,-12.76953 -2.08319,-3.5478 -4.94564,-5.89119 -6.37891,-7.84571 -1.43326,-1.95442 -1.43284,-3.51654 -4.03711,-9.50585 -6.51736,-13.5298 -14.26109,-28.96428 -25.26171,-37.10547 -9.83914,-7.17044 -21.45591,-12.12919 -33.26954,-15.07227 -57.34548,-14.28624 -140.85423,-17.62293 -180.4082,-12.61914 -8.46307,-14.60499 -23.5379,-40.34032 -35.18164,-58.42383 -12.54887,-19.48923 -27.87318,-26.82941 -45.67578,-32.51953 -23.7512,-7.59143 -54.55212,-11.08869 -82.7168,-10.93945 z m 90.49579,35.26298 c 3.01103,-0.0212 6.0455,-0.006 9.02222,0.44783 2.72828,0.41591 5.48842,0.96384 8.01591,2.07213 3.42232,1.50067 7.15034,3.72923 9.41684,6.08289 12.18198,12.65046 23.86071,33.54571 29.17219,43.18098 5.31148,9.63526 8.46663,14.18454 4.35758,14.69014 -4.10905,0.50559 -14.03353,2.71565 -18.77545,3.5443 -4.74191,0.82865 -7.87328,1.56396 -10.72851,0.55078 -2.85533,-1.01318 -5.43093,-3.77417 -8.92969,-9.39063 -3.49876,-5.61645 -7.91918,-14.08691 -12.79883,-23.33984 -4.87965,-9.25292 -10.21914,-19.28827 -13.10156,-25.38281 -2.88243,-6.09455 -3.30777,-8.24767 -3.03125,-9.71485 0.27651,-1.46717 1.25223,-2.24835 4.24414,-2.54101 0.74797,-0.0732 2.08884,-0.19255 3.13641,-0.19991 z m -80.20282,4.23702 c 12.72745,-0.0325 23.7959,0.16213 31.83594,0.74804 8.04003,0.586 13.05397,1.56341 16.99219,3.35352 3.93821,1.79011 6.8042,4.39417 10.9707,10.80664 4.1665,6.41247 9.63407,16.63468 13.70312,24.34961 4.06906,7.71493 6.73953,12.92264 8.26954,16.95899 1.53,4.0363 1.92014,6.89964 1.5625,8.82031 -0.32768,1.75972 -1.32931,2.72458 -5.82227,3.42578 0.0309,-0.887 -0.0124,-1.74483 -0.0898,-2.52735 -0.293,-2.96175 -1.00799,-4.84993 -3.44922,-7.38867 -2.44123,-2.53873 -6.6097,-5.72978 -10.90625,-7.45507 -4.29656,-1.7253 -8.72304,-1.98499 -12.4668,-2.01758 -3.74375,-0.0326 -6.80219,0.16226 -8.26758,1.04101 -1.46538,0.87876 -1.33539,2.4404 -1.10742,6.08789 0.22797,3.64749 0.5534,9.37276 0.97656,13.37696 0.0264,0.24992 0.0563,0.47421 0.084,0.71093 -0.65404,0.0175 -1.11465,0.0351 -1.79102,0.0527 -19.95596,0.52087 -49.70566,1.10741 -66.33984,1.40039 -16.63419,0.29298 -20.14851,0.29301 -22.81836,-0.19531 -2.66985,-0.48833 -4.49262,-1.46514 -5.50195,-4.16797 -1.00934,-2.70284 -1.20578,-7.12822 -1.04297,-16.08008 0.1628,-8.95186 0.68346,-22.42908 1.5625,-30.99024 0.87904,-8.56111 2.11792,-12.20627 4.20117,-14.67968 2.08325,-2.47341 5.01217,-3.77571 13.66797,-4.55664 8.65579,-0.78094 23.04989,-1.04168 35.77734,-1.07422 z m -80.78711,3.10547 c 1.17134,-0.0443 2.44948,0.18114 3.65625,0.77929 1.93083,0.95705 3.68061,2.87312 4.64649,7.46875 0.96588,4.59564 1.1493,11.87168 1.19531,20.87305 0.046,9.00137 -0.0455,19.72398 -0.78125,26.66602 -0.73571,6.94203 -2.11602,10.10086 -5.15235,12.06445 -3.03624,1.96359 -7.72592,2.72937 -10.57812,2.77734 -2.8522,0.048 -3.86283,-0.62095 -4.46094,-2.72851 -0.5981,-2.10756 -0.7832,-5.65011 -0.27734,-12.92578 0.50586,-7.27567 1.70369,-18.29061 2.85351,-27.57813 1.14983,-9.28752 2.25235,-16.85151 3.31055,-21.16015 1.05821,-4.3087 2.07096,-5.36257 3.63477,-5.88868 0.58642,-0.19729 1.25032,-0.32106 1.95312,-0.34765 z m 181.5586,69.48633 c 0.19315,0.02 0.53108,0.38343 1.05273,1.16601 2.2315,3.34771 4.88634,14.36159 6.01367,21.91406 1.67142,11.19744 3.56492,30.23988 3.75781,49.83594 0.19288,19.59605 0.54399,29.86079 0.36914,45.89649 -0.17484,16.03568 -0.12303,43.16326 -0.65624,50.31054 -0.53322,7.14728 -2.71709,15.51896 -31.08204,15.38086 -28.36486,-0.13812 -91.21625,-0.17517 -119.63672,-1.22266 -26.85057,-0.98962 -32.15366,-16.31148 -34.21874,-22.18164 -2.06507,-5.87015 -1.41641,-21.73735 -1.34571,-32.3457 0.0617,-9.25814 0.085,-40.17402 0.17578,-58.77344 0.0908,-18.59942 1.46766,-32.59132 2.69532,-41.01757 1.22757,-8.42625 3.40782,-12.93557 4.9082,-16.52735 1.5258,-3.49039 2.54552,-4.76653 3.78515,-6.26562 4.05699,-4.90609 -0.31999,4.71222 -1.39648,7.28906 -1.54809,3.70611 -3.54813,7.77074 -4.73047,15.88672 -1.18244,8.11576 -0.70525,37.84081 -0.7832,56.76367 -0.061,14.80983 -0.20566,31.24483 0.24609,44.42969 0.45175,13.18486 -0.767,28.1191 7.70117,37.79297 6.09526,6.96311 12.0163,8.97877 26.23047,9.09375 28.42845,0.22994 84.01249,0.50641 112.37696,0.64453 14.18227,0.0692 22.60883,0.0201 27.13086,-6.05664 3.60682,-4.84686 3.67347,-21.7023 3.99804,-40.53321 0.32439,-18.83098 0.45231,-44.08648 0.25977,-63.64843 -0.19255,-19.562 -0.71209,-33.4016 -2.34766,-44.35938 -0.0772,-6.96149 -5.85595,-23.61288 -4.5039,-23.47265 z m -132.08594,23.48437 c 3.64548,0.0488 6.44589,0.21306 8.00781,0.50586 1.56192,0.2928 1.88669,0.71509 2.08203,1.34961 0.19534,0.63452 0.26048,1.48065 -0.29297,1.95312 -0.55345,0.47248 -1.72318,0.57027 -3.82422,0.61914 -2.10103,0.0489 -5.12653,0.0488 -7.95898,0.0977 -2.83245,0.0488 -5.46738,0.14728 -7.16016,0.32617 -1.69277,0.1789 -2.44081,0.43919 -2.7832,0.87891 -0.34239,0.43972 -0.27883,1.05587 -0.002,1.6914 0.27703,0.63561 0.76519,1.28578 0.27734,1.70899 -0.48784,0.42321 -1.95271,0.61843 -3.98828,0.68359 -2.03557,0.0652 -4.63706,0.001 -6.57422,-0.1289 -1.93716,-0.1302 -3.206,-0.32638 -3.80859,-1.22266 -0.60259,-0.89628 -0.53817,-2.4896 0.0156,-3.82422 0.55386,-1.33462 1.5967,-2.40947 3.90625,-3.125 2.30956,-0.71552 5.89395,-1.07362 9.92969,-1.28515 4.03574,-0.21154 8.52835,-0.27736 12.17383,-0.22852 z m 157.04492,4.02734 h 36.125 c 1.16669,0 2.10547,0.93878 2.10547,2.10547 0,1.16669 -0.93878,2.10547 -2.10547,2.10547 h -36.125 c -1.1667,0 -2.10547,-0.93878 -2.10547,-2.10547 0,-1.16669 0.93877,-2.10547 2.10547,-2.10547 z m 0,7.10157 h 36.125 c 1.16669,0 2.10547,0.93878 2.10547,2.10546 0,1.1667 -0.93878,2.10547 -2.10547,2.10547 h -36.125 c -1.1667,0 -2.10547,-0.93877 -2.10547,-2.10547 0,-1.16669 0.93877,-2.10546 2.10547,-2.10546 z m 0,6.98632 h 36.125 c 1.16669,0 2.10547,0.94074 2.10547,2.10743 0,1.16669 -0.93878,2.10547 -2.10547,2.10547 h -36.125 c -1.1667,0 -2.10547,-0.93878 -2.10547,-2.10547 0,-1.16669 0.93877,-2.10743 2.10547,-2.10743 z m 0,7.10352 h 36.125 c 1.16669,0 2.10547,0.93882 2.10547,2.10547 0,1.1667 -0.93878,2.10547 -2.10547,2.10547 h -36.125 c -1.1667,0 -2.10547,-0.93878 -2.10547,-2.10547 0,-1.16665 0.93877,-2.10547 2.10547,-2.10547 z m 180.89648,3.97461 c 2.58433,-0.009 5.09995,-8.6e-4 7.53321,0.0234 19.46608,0.19537 33.66024,1.49735 45.76953,3.32031 12.10929,1.82296 22.1357,4.1663 25.91211,5.72852 3.7764,1.56218 1.30216,2.34371 -4.82031,1.75781 -6.12248,-0.58591 -15.88324,-2.53957 -29.03516,-3.64649 -13.15192,-1.10692 -29.68703,-1.36717 -47.5918,-0.97656 -17.90477,0.39061 -37.17336,1.43353 -58.39843,3.19141 -21.2251,1.75787 -44.39956,4.23189 -61.06641,8.00781 -16.66685,3.77592 -26.82238,8.85333 -33.98438,15.49414 -7.162,6.64081 -11.32907,14.84221 -14.51953,24.86914 -3.19046,10.02693 -5.40356,21.87523 -7.03125,31.9668 -1.62769,10.09157 -2.66904,18.42287 -3.9707,22.98047 -1.30166,4.55759 -2.86402,5.33877 -2.92969,-5.07813 -0.0657,-10.41689 1.36706,-32.03081 5.07813,-48.50195 3.71107,-16.47114 9.69961,-27.79945 19.07422,-35.41602 9.3746,-7.61657 22.13776,-11.52432 39.1289,-14.58398 16.99115,-3.05967 38.21747,-5.27348 61.19922,-6.83594 20.10903,-1.36715 41.56208,-2.23584 59.65234,-2.30078 z m -780.816402,2.32812 c 0.584794,0.005 1.172608,0.0255 1.638672,0.0645 0.932129,0.0779 1.376042,0.23324 1.597656,11.21484 0.221613,10.98161 0.221387,32.80117 0.199219,44.5957 -0.02217,11.79454 -0.06613,13.58654 -0.953125,14.48243 -0.886994,0.8959 -2.618271,0.89633 -3.726562,0.85742 -1.108295,-0.0389 -1.597582,-0.11771 -1.841797,-11.95703 -0.244214,-11.83932 -0.242857,-35.43885 -0.04297,-47.27735 0.199891,-11.83848 0.598357,-11.91614 1.507812,-11.95508 0.454728,-0.0195 1.036301,-0.0303 1.621094,-0.0254 z m 155.787112,9.47071 c 9.20461,-0.0591 18.15842,0.34082 26.50781,1.24414 22.26505,2.40886 40.23422,8.40014 52.4082,16.47265 12.17399,8.07252 18.5553,18.22732 22.78711,29.88086 4.23182,11.65355 6.31569,24.80463 7.35742,33.78907 1.04174,8.98443 1.04008,13.80162 -0.26171,16.40625 -1.3018,2.60462 -3.9035,2.99542 -5.66211,-1.95508 -1.75862,-4.95051 -2.67002,-15.23238 -4.81836,-25.64844 -2.14835,-10.41606 -5.53485,-20.96277 -11.06836,-29.81641 -5.53352,-8.85363 -13.21575,-16.0157 -21.93946,-21.28906 -8.7237,-5.27336 -18.4894,-8.65944 -29.10156,-10.87304 -10.61216,-2.21364 -22.06982,-3.25517 -34.96094,-3.32032 -12.89111,-0.0651 -27.21375,0.847 -40.75586,2.86524 -13.54204,2.01823 -26.30098,5.14183 -37.75976,8.52734 -11.45879,3.38551 -21.61486,7.03189 -29.23242,11.06836 -7.61756,4.03647 -12.69454,8.46312 -15.88477,10.74219 -3.190205,2.27907 -4.491399,2.40936 -2.798826,-0.78125 1.692572,-3.19062 6.379306,-9.70083 19.593746,-16.27539 13.21445,-6.57456 34.96435,-13.21699 59.11719,-17.12305 15.09553,-2.44129 31.13164,-3.81552 46.47266,-3.91406 z"
         transform="translate(0,122.51965)"
         id="path863" />
      <path
         id="path930"
         d="m 218.26463,496.34334 a 74.991989,74.991989 0 0 0 -74.99219,74.99219 74.991989,74.991989 0 0 0 74.99219,74.99219 74.991989,74.991989 0 0 0 74.99219,-74.99219 74.991989,74.991989 0 0 0 -74.99219,-74.99219 z m 0,27.53125 a 47.460938,47.460938 0 0 1 47.46094,47.46094 47.460938,47.460938 0 0 1 -47.46094,47.46094 47.460938,47.460938 0 0 1 -47.46094,-47.46094 47.460938,47.460938 0 0 1 47.46094,-47.46094 z m 0,22.26563 a 25.195312,25.195312 0 0 0 -25.19531,25.19531 25.195312,25.195312 0 0 0 25.19531,25.19531 25.195312,25.195312 0 0 0 25.19531,-25.19531 25.195312,25.195312 0 0 0 -25.19531,-25.19531 z"
         style="opacity:1;fill:#1a1a1a;fill-opacity:1;stroke:none;stroke-width:19.96634293;stroke-linecap:square;stroke-linejoin:round;stroke-miterlimit:4;stroke-dasharray:none;stroke-dashoffset:0;stroke-opacity:1;paint-order:markers stroke fill" />
      <path
         style="opacity:1;fill:#1a1a1a;fill-opacity:1;stroke:none;stroke-width:19.96634293;stroke-linecap:square;stroke-linejoin:round;stroke-miterlimit:4;stroke-dasharray:none;stroke-dashoffset:0;stroke-opacity:1;paint-order:markers stroke fill"
         d="m 815.99083,496.34334 a 74.991989,74.991989 0 0 0 -74.99219,74.99219 74.991989,74.991989 0 0 0 74.99219,74.99219 74.991989,74.991989 0 0 0 74.99219,-74.99219 74.991989,74.991989 0 0 0 -74.99219,-74.99219 z m 0,27.53125 a 47.460938,47.460938 0 0 1 47.46094,47.46094 47.460938,47.460938 0 0 1 -47.46094,47.46094 47.460938,47.460938 0 0 1 -47.46094,-47.46094 47.460938,47.460938 0 0 1 47.46094,-47.46094 z m 0,22.26563 a 25.195312,25.195312 0 0 0 -25.19531,25.19531 25.195312,25.195312 0 0 0 25.19531,25.19531 25.195312,25.195312 0 0 0 25.19531,-25.19531 25.195312,25.195312 0 0 0 -25.19531,-25.19531 z"
         id="path991" />
    </g>
  </g>
</svg>
